<?xml version="1.0" standalone="no"?>
<!DOCTYPE svg PUBLIC "-//W3C//DTD SVG 20010904//EN"
 "http://www.w3.org/TR/2001/REC-SVG-20010904/DTD/svg10.dtd">
<svg version="1.0" xmlns="http://www.w3.org/2000/svg"
 width="469.000000pt" height="481.000000pt" viewBox="0 0 469.000000 481.000000"
 preserveAspectRatio="xMidYMid meet">

<g transform="translate(0.000000,481.000000) scale(0.100000,-0.100000)"
fill="#000000" stroke="none">
<path d="M2245 3854 c-311 -78 -533 -288 -614 -584 -28 -102 -29 -255 -2 -308
55 -106 177 -161 284 -128 107 32 162 106 177 235 16 138 69 223 175 279 43
23 62 27 140 27 75 0 97 -4 133 -23 66 -35 119 -88 149 -150 24 -48 28 -70 28
-137 0 -67 -4 -89 -28 -137 -52 -106 -142 -164 -275 -177 -113 -12 -180 -52
-225 -136 -21 -38 -22 -52 -22 -340 l0 -301 26 -49 c89 -174 339 -174 428 0
24 46 26 60 29 217 3 124 7 168 16 168 7 0 48 17 92 38 153 75 294 215 368
368 49 100 86 249 86 349 0 90 -33 236 -73 327 -85 192 -259 351 -468 430 -80
30 -92 32 -244 34 -88 2 -169 0 -180 -2z"/>
<path d="M2310 1604 c-45 -20 -96 -69 -123 -119 -29 -54 -29 -154 0 -210 76
-144 257 -180 378 -73 56 48 79 102 79 178 0 100 -57 187 -146 224 -47 20
-142 20 -188 0z"/>
</g>
</svg>
